<?xml version="1.0" encoding="UTF-8"?>
<svg id="Layer_1" xmlns="http://www.w3.org/2000/svg" viewBox="0 0 195.79 252.36">
  <defs>
    <style>
      .cls-1 {
        fill: none;
      }

      .cls-2 {
        fill: #efeff0;
      }
    </style>
  </defs>
  <rect class="cls-1" width="195.79" height="252.36"/>
  <g>
    <path class="cls-2" d="M173.63,19.03c-2.68,0-3.39.71-4.82,4.82l-26.53,79.87,20.02-82.44c.15-.6-.22-1.21-.82-1.36-.6-.15-1.21.22-1.36.83h0s-21.1,86.9-21.1,86.9l10.78-86.54c.08-.61-.36-1.18-.97-1.25-.62-.08-1.18.36-1.25.97h0l-10.74,86.19V20.9h0c0-.62-.5-1.12-1.12-1.12s-1.12.5-1.12,1.12v86.6l-9.88-86.73h0c-.07-.61-.63-1.06-1.24-.99-.62.07-1.06.63-.99,1.24l9.58,84.09-19.74-84.48h0c-.14-.6-.74-.98-1.35-.84-.6.14-.98.74-.84,1.35l18.1,77.49-25.25-74.8c-1.43-4.1-2.14-4.82-4.82-4.82-.07,0-.14.02-.21.02-.06,0-.12-.02-.18-.02-2.67,0-3.39.71-4.82,4.82l-32.64,98.29L27.14,23.84c-1.43-4.1-2.14-4.82-4.82-4.82-1.96,0-3.92,1.61-3.92,3.39,0,.89,0,1.07.89,3.75l36.75,107.39c1.25,3.57,2.14,4.64,4.1,4.64,2.32,0,3.03-.89,4.28-4.64l33.4-99.54,34.06,99.54c1.25,3.57,2.14,4.64,4.1,4.64,2.32,0,3.03-.89,4.28-4.64l36.03-107.39c.89-2.5.89-2.67.89-3.75,0-1.61-1.79-3.39-3.57-3.39ZM64.3,123.22c-.9,0-1.64-.73-1.64-1.64s.73-1.64,1.64-1.64,1.63.73,1.63,1.64-.73,1.64-1.63,1.64ZM66.73,117.39l-1.73-.56,1.69-5.2,1.73.56-1.69,5.2ZM69.21,109.74l-1.73-.56,1.69-5.19,1.73.56-1.69,5.19Z"/>
    <g>
      <path class="cls-2" d="M83.67,217.64c.54-.31.66-.43.66-.74,0-.17-.06-.32-.23-.54-1.06-1.57-2.71-2.46-4.68-2.46-3.22,0-5.68,2.17-5.68,5.05,0,2.14,1.26,3.71,3.91,4.82q2.57,1.08,3.22,1.51c.86.6,1.31,1.43,1.31,2.51,0,1.83-1.31,3.17-3.11,3.17-1.68,0-2.97-1.09-3.17-2.68-.09-.51-.26-.74-.63-.74q-.14,0-.57.11l-.86.17c-.71.17-.88.29-.88.71,0,.26.14.83.31,1.31.91,2.37,3.08,3.82,5.68,3.82,3.51,0,6.11-2.6,6.11-6.08,0-2.62-1.37-4.34-4.45-5.62q-2.51-1.03-3.05-1.4c-.63-.43-.91-.97-.91-1.6,0-1.34,1.2-2.37,2.77-2.37,1.06,0,1.91.43,2.4,1.2.23.37.37.46.63.46.17,0,.23-.03.68-.31l.54-.31ZM69.83,217.64c.54-.31.66-.43.66-.74,0-.17-.06-.32-.23-.54-1.06-1.57-2.71-2.46-4.68-2.46-3.22,0-5.68,2.17-5.68,5.05,0,2.14,1.26,3.71,3.91,4.82q2.57,1.08,3.22,1.51c.86.6,1.31,1.43,1.31,2.51,0,1.83-1.31,3.17-3.11,3.17-1.68,0-2.97-1.09-3.17-2.68-.08-.51-.26-.74-.63-.74q-.14,0-.57.11l-.86.17c-.71.17-.88.29-.88.71,0,.26.14.83.31,1.31.91,2.37,3.08,3.82,5.68,3.82,3.51,0,6.11-2.6,6.11-6.08,0-2.62-1.37-4.34-4.45-5.62q-2.51-1.03-3.05-1.4c-.63-.43-.91-.97-.91-1.6,0-1.34,1.2-2.37,2.77-2.37,1.06,0,1.91.43,2.4,1.2.23.37.37.46.63.46.17,0,.23-.03.69-.31l.54-.31ZM49.41,216.98h6.56c.97,0,1.06-.08,1.06-1.06v-.6c0-.63,0-.69-.17-.88-.17-.17-.23-.17-.88-.17h-8.39c-.97,0-1.05.09-1.05,1.06v16.92c0,.97.08,1.06,1.05,1.06h8.39c.97,0,1.06-.09,1.06-1.06v-.6c0-.63,0-.69-.17-.89-.17-.17-.23-.17-.88-.17h-6.56v-6.34h6.34c.66,0,.71,0,.88-.17.17-.2.17-.26.17-.88v-.6c0-.63,0-.69-.17-.89-.17-.17-.23-.17-.88-.17h-6.34v-4.57ZM35.35,223v-6.02h1.03c1.34,0,2.17.2,2.85.66.68.49,1.11,1.34,1.11,2.26,0,1-.46,1.91-1.2,2.43-.66.45-1.6.68-2.88.68h-.91ZM38.92,225.2c2.54-.54,4.22-2.68,4.22-5.34,0-1.82-.88-3.54-2.28-4.48-1.2-.8-2.57-1.11-5.02-1.11h-2.31c-.97,0-1.06.09-1.06,1.06v16.92c0,.66,0,.71.17.88.2.17.26.17.88.17h.77c.63,0,.68,0,.88-.17.17-.17.17-.23.17-.88v-6.73h.51l4.99,7.19q.43.6,1.2.6h1.11c.74,0,1.03-.17,1.03-.6,0-.17-.09-.37-.37-.74l-4.91-6.76ZM22.27,222.92v-5.99h.94c1.48,0,2.34.2,3.03.68.66.49,1.06,1.34,1.06,2.25s-.37,1.77-.97,2.29c-.66.54-1.51.77-3,.77h-1.06ZM22.27,225.57h1.34c2.08,0,3.68-.54,4.79-1.62,1.03-.97,1.65-2.48,1.65-4.03,0-1.74-.8-3.45-2.08-4.45-1.23-.91-2.43-1.2-5.34-1.2h-2.2c-.97,0-1.06.09-1.06,1.06v16.92c0,.66,0,.71.17.88.2.17.26.17.88.17h.77c.63,0,.69,0,.89-.17.17-.17.17-.23.17-.88v-6.68Z"/>
      <path class="cls-2" d="M169.08,198.27v-7.76h1.57c1.23,0,2.17.17,2.88.57,1.03.57,1.68,1.83,1.68,3.31,0,2.45-1.57,3.88-4.31,3.88h-1.83ZM171.05,199.41c1.51-.09,2.28-.23,3.03-.63,1.51-.83,2.4-2.4,2.4-4.37,0-1.77-.68-3.22-1.91-4.08-1-.71-2.08-.97-4.02-.97h-1.74c-.86,0-.94.09-.94.94v17.15c0,.74.14.94.63.94.46,0,.6-.2.6-.94v-8.05h.57l5.74,8.42c.34.51.4.57.69.57.37,0,.68-.26.68-.54,0-.17-.06-.26-.31-.66l-5.39-7.79ZM157.01,190.51h6.93c.71,0,.94-.14.94-.57s-.23-.57-.94-.57h-7.22c-.86,0-.94.09-.94.94v17.15c0,.86.09.94.94.94h7.22c.71,0,.94-.14.94-.57s-.23-.57-.94-.57h-6.93v-8.71h6.73c.71,0,.94-.14.94-.57s-.23-.57-.94-.57h-6.73v-6.91ZM148.42,190.51h4c.71,0,.94-.14.94-.57s-.23-.57-.94-.57h-9.16c-.71,0-.94.14-.94.57s.23.57.94.57h3.94v16.95c0,.74.14.94.63.94.46,0,.6-.2.6-.94v-16.95ZM136.32,189.11c-2.77,0-4.88,2-4.88,4.65,0,2.14.83,3.17,3.76,4.62,2.83,1.4,2.91,1.46,3.54,1.8,1.2.71,1.85,1.71,1.85,2.94,0,2.43-2.11,4.42-4.65,4.42-1.68,0-3.17-.86-3.94-2.28-.51-.97-.54-.97-.86-.97-.34,0-.66.28-.66.6,0,.34.49,1.2,1,1.8,1.2,1.34,2.71,2.03,4.42,2.03,3.31,0,5.96-2.51,5.96-5.59,0-1.54-.68-2.77-2-3.65-.86-.54-1.34-.8-3.8-1.97-2.6-1.26-3.37-2.08-3.37-3.62,0-2.03,1.54-3.6,3.57-3.6,1.23,0,2.28.46,3.03,1.34q.57.69.83.69c.31,0,.63-.31.63-.63,0-.2-.14-.43-.46-.8-1.03-1.11-2.48-1.77-3.99-1.77M126.73,206.29l-14.75-16.5c-.29-.34-.46-.46-.66-.46-.43,0-.57.23-.57.97v17.15c0,.74.14.94.63.94.46,0,.6-.2.6-.94v-15.58l14.75,16.1c.34.37.46.46.66.46.43,0,.57-.26.57-.97v-17.15c0-.74-.14-.94-.6-.94-.49,0-.63.2-.63.94v15.98ZM106.75,190.31c0-.74-.14-.94-.6-.94-.49,0-.63.2-.63.94v17.15c0,.74.14.94.63.94.46,0,.6-.2.6-.94v-17.15ZM91.76,206.32l-7.19-16.27c-.23-.54-.37-.69-.66-.69-.4,0-.54.2-.63.88l-1.77,17.15-.03.43c0,.34.23.57.6.57.46,0,.57-.17.66-.88l1.57-15.27,6.79,15.38c.28.66.37.77.66.77s.4-.12.68-.77l6.82-15.38,1.63,15.27c.06.71.2.88.66.88.37,0,.63-.23.63-.57q0-.08-.03-.43l-1.83-17.18c-.06-.69-.2-.89-.63-.89-.26,0-.43.17-.66.68l-7.28,16.3ZM75.92,190.51h4c.71,0,.94-.14.94-.57s-.23-.57-.94-.57h-9.16c-.71,0-.94.14-.94.57s.23.57.94.57h3.94v16.95c0,.74.14.94.63.94.46,0,.6-.2.6-.94v-16.95ZM63.82,189.11c-2.77,0-4.88,2-4.88,4.65,0,2.14.83,3.17,3.77,4.62,2.83,1.4,2.91,1.46,3.54,1.8,1.2.71,1.86,1.71,1.86,2.94,0,2.43-2.11,4.42-4.65,4.42-1.68,0-3.17-.86-3.94-2.28-.51-.97-.54-.97-.86-.97-.34,0-.66.28-.66.6,0,.34.49,1.2,1,1.8,1.2,1.34,2.71,2.03,4.42,2.03,3.31,0,5.96-2.51,5.96-5.59,0-1.54-.68-2.77-2-3.65-.86-.54-1.34-.8-3.79-1.97-2.6-1.26-3.37-2.08-3.37-3.62,0-2.03,1.54-3.6,3.57-3.6,1.23,0,2.28.46,3.02,1.34q.57.69.83.69c.32,0,.63-.31.63-.63,0-.2-.14-.43-.46-.8-1.03-1.11-2.48-1.77-4-1.77M48.73,190.51h6.93c.71,0,.94-.14.94-.57s-.23-.57-.94-.57h-7.22c-.86,0-.94.09-.94.94v17.15c0,.86.09.94.94.94h7.22c.71,0,.94-.14.94-.57s-.23-.57-.94-.57h-6.93v-8.71h6.73c.71,0,.94-.14.94-.57s-.23-.57-.94-.57h-6.73v-6.91ZM24.76,205.8l-4.94-15.64c-.23-.68-.34-.8-.77-.8-.37,0-.66.26-.66.57,0,.11.03.2.14.57l5.42,17.12c.2.6.34.74.66.74.34,0,.46-.14.68-.71l6.34-15.78,5.76,15.78c.23.63.34.74.68.74.31,0,.43-.12.66-.74l6.28-17.12c.11-.34.14-.46.14-.63,0-.29-.29-.54-.63-.54-.43,0-.54.12-.77.77l-5.68,15.67-5.79-15.72c-.23-.57-.34-.71-.66-.71-.34,0-.46.14-.69.71l-6.19,15.72Z"/>
      <path class="cls-2" d="M30.96,181.21c.8-1.08,1-2,1-4.51v-11.3c0-.74-.14-.94-.6-.94-.48,0-.63.2-.63.94v10.96c0,2.34-.14,3.25-.69,4.08-.83,1.28-2.71,2.2-4.54,2.2s-3.74-.91-4.57-2.2c-.54-.83-.68-1.74-.68-4.08v-10.96c0-.74-.14-.94-.6-.94-.49,0-.63.2-.63.94v11.3c0,2.51.2,3.42,1,4.51,1.14,1.6,3.23,2.6,5.48,2.6s4.31-1,5.45-2.6M53.02,182.55v-17.15c0-.74-.14-.94-.6-.94-.49,0-.63.2-.63.94v15.98l-14.76-16.49c-.29-.34-.46-.46-.66-.46-.43,0-.57.23-.57.97v17.15c0,.74.14.94.63.94.46,0,.6-.2.6-.94v-15.58l14.76,16.1c.34.37.46.46.66.46.43,0,.57-.26.57-.97M57.67,182.55v-17.15c0-.74-.14-.94-.6-.94-.49,0-.63.2-.63.94v17.15c0,.74.14.94.63.94.46,0,.6-.2.6-.94M73.71,165.57c.14-.4.14-.43.14-.6,0-.26-.29-.54-.57-.54-.43,0-.54.12-.77.77l-5.22,15.72-5.31-15.72c-.23-.66-.34-.77-.77-.77-.31,0-.63.26-.63.54,0,.14,0,.17.14.6l5.88,17.18c.2.57.34.74.66.74.37,0,.49-.14.69-.74l5.76-17.18ZM77.82,182.35v-8.71h6.74c.71,0,.94-.14.94-.57s-.23-.57-.94-.57h-6.74v-6.91h6.93c.71,0,.94-.14.94-.57s-.23-.57-.94-.57h-7.22c-.86,0-.94.09-.94.94v17.15c0,.86.09.94.94.94h7.22c.71,0,.94-.14.94-.57s-.23-.57-.94-.57h-6.93ZM92.01,173.36h-1.83v-7.76h1.57c1.23,0,2.17.17,2.88.57,1.03.57,1.68,1.83,1.68,3.31,0,2.45-1.57,3.88-4.31,3.88M97.54,182.3l-5.39-7.79c1.51-.09,2.28-.23,3.03-.63,1.51-.83,2.4-2.4,2.4-4.37,0-1.77-.69-3.22-1.91-4.08-1-.71-2.08-.97-4.02-.97h-1.74c-.86,0-.94.09-.94.94v17.15c0,.74.14.94.63.94.46,0,.6-.2.6-.94v-8.05h.57l5.74,8.42c.34.51.4.57.69.57.37,0,.68-.26.68-.54,0-.17-.06-.26-.32-.66M102.11,168.97c0-2.03,1.54-3.6,3.57-3.6,1.23,0,2.28.46,3.02,1.34q.57.69.83.69c.31,0,.63-.31.63-.63,0-.2-.14-.43-.46-.8-1.03-1.11-2.48-1.77-4-1.77-2.77,0-4.88,2-4.88,4.65,0,2.14.83,3.17,3.77,4.62,2.83,1.4,2.91,1.45,3.54,1.8,1.2.71,1.86,1.71,1.86,2.94,0,2.42-2.11,4.42-4.65,4.42-1.68,0-3.17-.86-3.94-2.28-.51-.97-.54-.97-.86-.97-.34,0-.66.29-.66.6,0,.34.48,1.2,1,1.8,1.2,1.34,2.71,2.03,4.42,2.03,3.31,0,5.96-2.51,5.96-5.59,0-1.54-.68-2.77-2-3.65-.86-.54-1.34-.8-3.79-1.97-2.6-1.26-3.37-2.08-3.37-3.62M115.9,182.55v-17.15c0-.74-.14-.94-.6-.94-.48,0-.63.2-.63.94v17.15c0,.74.14.94.63.94.46,0,.6-.2.6-.94M141.67,165.66c.17-.31.26-.51.26-.66,0-.29-.31-.54-.68-.54-.31,0-.37.06-.68.6l-5.22,8.96-5.05-8.93-.14-.23c-.14-.26-.3-.36-.53-.4h0s-.01,0-.01,0c-.04,0-.21-.01-.26,0h-10.1c-.71,0-.94.14-.94.57s.23.57.94.57h3.94v16.95c0,.74.14.94.63.94.46,0,.6-.2.6-.94v-16.95h4s.03,0,.05,0h.66s.02.04.03.06l5.57,9.7v7.19c0,.74.14.94.63.94.46,0,.6-.2.6-.94v-7.19l5.74-9.7ZM165.55,174.02c0,4.71-3.88,8.62-8.59,8.62s-8.56-3.94-8.56-8.5c0-2.25.71-4.22,2.17-5.82,1.66-1.86,4-2.94,6.34-2.94,4.77,0,8.65,3.88,8.65,8.65M166.84,173.99c0-5.34-4.48-9.79-9.87-9.79s-9.85,4.48-9.85,9.65c0,5.45,4.42,9.96,9.79,9.96s9.93-4.42,9.93-9.82M177.19,165.03c0-.43-.23-.57-.94-.57h-5.79c-.86,0-.94.09-.94.94v17.15c0,.74.14.94.63.94.46,0,.6-.2.6-.94v-8.91h5.31c.71,0,.94-.14.94-.57s-.23-.57-.94-.57h-5.31v-6.91h5.51c.71,0,.94-.14.94-.57"/>
    </g>
  </g>
</svg>